<?xml version="1.0" encoding="UTF-8"?>
<svg id="Layer_1" data-name="Layer 1" xmlns="http://www.w3.org/2000/svg" version="1.1" viewBox="0 0 628 259.5">
  <defs>
    <style>
      .cls-1 {
        fill: #fff;
        stroke-width: 0px;
      }
    </style>
  </defs>
  <g>
    <polygon class="cls-1" points="10 216.8 45.9 180.9 10 145 40.4 145 76.3 180.9 40.4 216.8 10 216.8"/>
    <polygon class="cls-1" points="618 216.8 582.1 180.9 618 145 587.6 145 551.7 180.9 587.6 216.8 618 216.8"/>
    <path class="cls-1" d="M82.6,212.7v-63.8h10.1l44.8,37.6c3.2,2.7,5.6,5,7.3,6.9-.4-5.9-.6-9.6-.6-11v-33.5h13.3v63.8h-10.1l-46.8-39.4c-2-1.7-3.7-3.4-5.3-5.2.4,4.1.6,7.5.6,10.1v34.5h-13.3Z"/>
    <path class="cls-1" d="M161.2,212.7v-63.8h65.3v10.9h-50.5v14.1h29.4v10.9h-29.4v15.8h51.1v12h-65.9Z"/>
    <path class="cls-1" d="M274.2,160.2v52.5h-14.9v-52.9h-29.3v-10.9h73.6v11.3h-29.5Z"/>
    <g>
      <path class="cls-1" d="M380.1,164c0-5.9,1.1-9.9,3.3-12,2.2-2.1,6.4-3.1,12.5-3.1h47c6.1,0,10.3,1,12.5,3.1,2.2,2.1,3.3,6.1,3.3,12v33.6c0,5.9-1.1,9.9-3.3,12-2.2,2.1-6.4,3.1-12.5,3.1h-47c-6.1,0-10.3-1-12.5-3.1-2.2-2.1-3.3-6.1-3.3-12v-33.6ZM394.9,200.7h48.9v-40.5h-48.9v40.5Z"/>
      <path class="cls-1" d="M462.3,212.7v-63.8h12l30,38.6,29.4-38.6h11.9v63.8h-13.7v-39.4c0-1.6.2-3.8.6-6.8-1.6,3.2-2.8,5.4-3.7,6.7l-24,31.9h-3l-24-32c-1.7-2.3-3-4.5-3.8-6.6.3,2.6.4,4.8.4,6.8v39.4h-12Z"/>
      <path class="cls-1" d="M361.8,190.1v10.6h-40v-40.5h40v9.6h14.8v-5.9c0-5.9-1.1-9.9-3.3-12-2.2-2.1-6.4-3.1-12.5-3.1h-38.1c-6.1,0-10.3,1-12.5,3.1-2.2,2.1-3.3,6.1-3.3,12v33.6c0,5.9,1.1,9.9,3.3,12,2.2,2.1,6.4,3.1,12.5,3.1h38.1c6.1,0,10.3-1,12.5-3.1,2.2-2.1,3.3-6.1,3.3-12v-7.5h-14.8Z"/>
    </g>
  </g>
  <g>
    <g>
      <path class="cls-1" d="M251,78.2c0,13.1-8.7,31.3-19.5,31.3s-19.5-17.7-19.5-30.8,8.7-21.5,19.5-21.5,19.5,7.9,19.5,21Z"/>
      <path class="cls-1" d="M205.6,71.3s4.5-23.5,28.9-21.9c0,0,18.1.9,23.4,21.9.3,1.1,2.4,2.9,3,3.2s4,7.8-2.6,10.1c-4.7,1.6-8.5,13.3-21,9.6,0,0-6.4,3.7-5.8-1.3.3-2.5,5-2,5.5-.5,0,0,10.1,3.9,16-5.5,0,0,4.6-5.5,3-11.6-1.9-7.3-5-17.4-21-21.7,0,0-19.2-3.2-26.9,18.9-1,2.8-.5,5.2.5,12,.3,2.4-6.7,2.9-7.3-5.5-.1-2.2.3-5.4,4.3-7.8Z"/>
      <path class="cls-1" d="M219.8,105.2c1.4,4.7-2.2,13.8,11.2,16.2,0,0,11.8.6,12.3-15.1.2-4.7,7.8-1,19,9.3,0,0,6.8,7.6,6.5,10.3-.6,4.1-71.8,1.7-71.8,1.7,0,0-13.6,0,9.8-18.7,2.7-2.2,11.5-8.9,13-3.6Z"/>
    </g>
    <g>
      <path class="cls-1" d="M417.1,78.2c0,13.1-8.7,31.3-19.5,31.3s-19.5-17.7-19.5-30.8,8.7-21.5,19.5-21.5,19.5,7.9,19.5,21Z"/>
      <path class="cls-1" d="M371.7,71.3s4.5-23.5,28.9-21.9c0,0,18.1.9,23.4,21.9.3,1.1,2.4,2.9,3,3.2s4,7.8-2.6,10.1c-4.7,1.6-8.5,13.3-21,9.6,0,0-6.4,3.7-5.8-1.3.3-2.5,5-2,5.5-.5,0,0,10.1,3.9,16-5.5,0,0,4.6-5.5,3-11.6-1.9-7.3-5-17.4-21-21.7,0,0-19.2-3.2-26.9,18.9-1,2.8-.5,5.2.5,12,.3,2.4-6.7,2.9-7.3-5.5-.1-2.2.3-5.4,4.3-7.8Z"/>
      <path class="cls-1" d="M385.9,105.2c1.4,4.7-2.2,13.8,11.2,16.2,0,0,11.8.6,12.3-15.1.2-4.7,7.8-1,19,9.3,0,0,6.8,7.6,6.5,10.3-.6,4.1-71.8,1.7-71.8,1.7,0,0-13.6,0,9.8-18.7,2.7-2.2,11.5-8.9,13-3.6Z"/>
    </g>
    <path class="cls-1" d="M347,58.9c0,21.7-14.4,51.8-32.2,51.8s-32.2-29.3-32.2-51,14.4-35.6,32.2-35.6,32.2,13.1,32.2,34.8Z"/>
    <path class="cls-1" d="M271.8,47.4s7.5-38.9,47.9-36.3c0,0,30.1,1.5,38.8,36.3.4,1.8,4,4.7,4.9,5.3,1,.6,6.7,12.9-4.3,16.8-7.8,2.7-14.1,22.1-34.7,15.9,0,0-10.5,6.1-9.6-2.2.4-4.1,8.3-3.4,9-.8,0,0,16.7,6.5,26.5-9.1,0,0,7.5-9,4.9-19.2-3.1-12.1-8.3-28.8-34.8-35.9,0,0-31.8-5.3-44.5,31.4s-.8,8.6.8,19.9c.6,4-11.2,4.8-12.1-9.1-.2-3.7.5-8.9,7.1-12.9Z"/>
    <path class="cls-1" d="M295.4,103.6c2.3,7.8-3.6,22.9,18.6,26.8,0,0,19.5.9,20.4-25,.3-7.8,13-1.6,31.4,15.4,0,.1,11.3,12.6,10.7,17-.9,6.9-118.9,2.8-118.9,2.8,0,0-22.5.1,16.2-31,4.5-3.6,19-14.8,21.6-5.9Z"/>
  </g>
  <g>
    <path class="cls-1" d="M186.4,225h9.8c2.3,0,4.1.4,5.2,1.1,1.6,1,2.4,2.5,2.4,4.4s-.5,2.7-1.5,3.7c-.7.7-1.6,1.2-2.9,1.7,1.1.3,1.9.7,2.5,1.1.8.6,1.4,1.3,1.8,2.2.4.9.6,1.7.6,2.6s-.3,2.1-.8,3c-.5,1-1.4,1.8-2.6,2.4-1.2.6-2.7.9-4.5.9h-10.1v-23ZM190.9,228.5v5.5h4.8c1,0,1.9-.3,2.7-1,.5-.4.7-1,.7-1.9s-.3-1.5-.9-2-1.5-.8-2.7-.8h-4.7ZM190.9,237.6v6.9h3.6c1.9,0,3.2-.3,4-1,.8-.6,1.2-1.5,1.2-2.6s-.4-1.8-1.1-2.4-1.8-1-3.2-1h-4.6Z"/>
    <path class="cls-1" d="M207.7,231.6h4.2v11.3c0,.6.2,1,.5,1.4.3.3.7.5,1.2.5s1-.1,1.6-.4c.5-.3,1.2-.8,1.9-1.7v-11h4.2v16.4h-4.2v-2.5c-.9,1-1.9,1.7-2.9,2.1-1,.4-1.8.7-2.6.7s-1.3-.2-1.9-.5c-.6-.3-1.1-.8-1.5-1.5-.4-.7-.6-1.6-.6-2.6v-12.1Z"/>
    <path class="cls-1" d="M227.2,243.6c.8.6,1.6,1.1,2.2,1.3.7.3,1.3.4,2,.4s1.6-.2,2-.5c.4-.3.7-.7.7-1.2s-.2-.8-.6-1.1-1.2-.6-2.5-.8c-2.2-.4-3.7-1-4.6-1.9-.9-.9-1.3-2-1.3-3.3s.6-2.5,1.7-3.6c1.2-1,2.7-1.6,4.6-1.6s2.1.2,3,.5c1,.3,2,.9,3.1,1.8l-2.4,2c-1.2-.7-2-1.1-2.4-1.3-.4-.2-.9-.2-1.3-.2-.7,0-1.3.2-1.8.6s-.7.8-.7,1.3.2.8.6,1.2c.4.3,1.3.7,2.8,1,2,.4,3.4.9,4.2,1.5,1.1.8,1.7,1.9,1.7,3.3s-.6,2.7-1.7,3.7c-1.2,1-2.9,1.5-5.1,1.5s-2.6-.2-3.6-.7c-1-.5-2.1-1.2-3.1-2.3l2.5-1.7Z"/>
    <path class="cls-1" d="M242.4,224.7h4.1v4.1h-4.1v-4.1ZM242.4,231.6h4.1v16.4h-4.1v-16.4Z"/>
    <path class="cls-1" d="M255.8,233.9c.9-.8,1.8-1.5,2.7-1.9.9-.4,1.9-.6,3-.6s2.1.3,2.7.9c.7.8,1.1,1.9,1.1,3.3v12.5h-4.1v-11.4c0-.7-.1-1.2-.4-1.4-.3-.3-.6-.4-1.1-.4s-1.1.1-1.6.4c-.6.3-1.3.8-2.2,1.7v11.2h-4.2v-16.4h4.2v2.2Z"/>
    <path class="cls-1" d="M283.1,244.1c-.4.7-.7,1.3-1.1,1.6-.5.6-1.1,1.1-1.7,1.5-.6.4-1.2.7-1.9.8-.7.2-1.3.3-2,.3-1.4,0-2.7-.4-4-1.1-1.3-.7-2.2-1.7-2.9-3.1-.7-1.3-1-2.9-1-4.5,0-2.5.7-4.5,2.1-6,1.4-1.5,3.3-2.3,5.5-2.3s3.9.7,5.2,2.1c1.3,1.4,2,3.3,2,5.7s0,.8,0,1.4h-10.4c0,1.5.4,2.6,1,3.3.6.7,1.5,1.1,2.4,1.1s1.4-.2,1.9-.6c.5-.4,1-1,1.4-1.7l3.4,1.4ZM279.7,238.1c0-1.3-.4-2.2-1.1-2.9-.6-.7-1.4-1-2.4-1s-1.6.3-2.3,1c-.6.7-1,1.6-1,2.9h6.7Z"/>
    <path class="cls-1" d="M288.1,243.6c.8.6,1.6,1.1,2.2,1.3.7.3,1.3.4,2,.4s1.6-.2,2-.5c.4-.3.7-.7.7-1.2s-.2-.8-.6-1.1-1.2-.6-2.5-.8c-2.2-.4-3.7-1-4.6-1.9-.9-.9-1.3-2-1.3-3.3s.6-2.5,1.7-3.6c1.2-1,2.7-1.6,4.6-1.6s2.1.2,3,.5c1,.3,2,.9,3.1,1.8l-2.4,2c-1.2-.7-2-1.1-2.4-1.3-.4-.2-.9-.2-1.3-.2-.7,0-1.3.2-1.8.6s-.7.8-.7,1.3.2.8.6,1.2c.4.3,1.3.7,2.8,1,2,.4,3.4.9,4.2,1.5,1.1.8,1.7,1.9,1.7,3.3s-.6,2.7-1.7,3.7c-1.2,1-2.9,1.5-5.1,1.5s-2.6-.2-3.6-.7c-1-.5-2.1-1.2-3.1-2.3l2.5-1.7Z"/>
    <path class="cls-1" d="M304.1,243.6c.8.6,1.6,1.1,2.2,1.3.7.3,1.3.4,2,.4s1.6-.2,2-.5c.4-.3.7-.7.7-1.2s-.2-.8-.6-1.1-1.2-.6-2.5-.8c-2.2-.4-3.7-1-4.6-1.9-.9-.9-1.3-2-1.3-3.3s.6-2.5,1.7-3.6c1.2-1,2.7-1.6,4.6-1.6s2.1.2,3.1.5c1,.3,2,.9,3.1,1.8l-2.4,2c-1.2-.7-2-1.1-2.4-1.3-.4-.2-.9-.2-1.3-.2-.7,0-1.3.2-1.8.6s-.7.8-.7,1.3.2.8.6,1.2c.4.3,1.3.7,2.8,1,2,.4,3.4.9,4.2,1.5,1.1.8,1.7,1.9,1.7,3.3s-.6,2.7-1.7,3.7c-1.2,1-2.9,1.5-5.1,1.5s-2.6-.2-3.6-.7c-1-.5-2.1-1.2-3.1-2.3l2.5-1.7Z"/>
    <path class="cls-1" d="M345.8,241.4c-.3,1.3-.7,2.3-1.2,3.1-.8,1.2-1.8,2.2-3.1,2.9-1.3.7-2.7,1.1-4.4,1.1s-3.5-.4-5.1-1.3c-1.6-.9-2.8-2.2-3.7-4-.8-1.8-1.3-3.9-1.3-6.3s.4-4.7,1.3-6.6c.8-1.9,2.1-3.4,3.7-4.3,1.6-1,3.3-1.4,5.1-1.4s2.6.3,3.9.9c1.3.6,2.3,1.4,3.1,2.5.6.7,1,1.7,1.4,3l-4.2,1.2c-.3-1.2-.8-2.2-1.6-2.8-.8-.6-1.7-1-2.8-1-1.6,0-2.9.8-3.8,2.3-.9,1.6-1.3,3.6-1.3,6.1s.2,3,.6,4.2c.4,1.2,1,2.1,1.7,2.6.7.6,1.5.9,2.3.9,1.3,0,2.4-.5,3.4-1.4.7-.6,1.3-1.5,1.7-2.7l4.2,1.2Z"/>
    <path class="cls-1" d="M355,231.3c2.4,0,4.4.7,5.7,2.2,1.4,1.5,2.1,3.5,2.1,6.2s-.7,4.8-2.1,6.3c-1.4,1.5-3.2,2.3-5.3,2.3s-3.8-.7-5.3-2.2-2.2-3.6-2.2-6.4.7-4.8,2-6.2c1.3-1.5,3-2.2,5-2.2ZM355.4,234.1c-.9,0-1.7.4-2.2,1.1-.7,1-1.1,2.5-1.1,4.7s.3,3.4,1,4.2c.6.8,1.4,1.3,2.3,1.3s1.2-.2,1.7-.6c.5-.4.9-1,1.1-1.7.3-1.1.5-2.2.5-3.6s-.1-1.9-.4-2.8c-.3-.9-.7-1.5-1.2-1.9-.5-.4-1.1-.6-1.7-.6Z"/>
    <path class="cls-1" d="M370.5,233.9c.9-.8,1.8-1.5,2.7-1.9.9-.4,1.9-.6,3-.6s2.1.3,2.7.9c.7.8,1.1,1.9,1.1,3.3v12.5h-4.1v-11.4c0-.7-.1-1.2-.4-1.4-.3-.3-.6-.4-1.1-.4s-1.1.1-1.6.4c-.6.3-1.3.8-2.2,1.7v11.2h-4.2v-16.4h4.2v2.2Z"/>
    <path class="cls-1" d="M385,226.3h4.2v5.3h2.9v3h-2.9v8.8c0,.5.2.8.5,1.1s1.1.4,2.4.4v3.4c-.9,0-1.4,0-1.5,0-1.3,0-2.3-.2-3.1-.5-.8-.3-1.4-.9-1.8-1.7-.5-.8-.7-1.7-.7-2.7v-8.8h-2.5v-3h2.5v-5.3Z"/>
    <path class="cls-1" d="M394.7,234.3c.8-1,1.8-1.7,2.9-2.2,1.1-.5,2.3-.8,3.6-.8s2.5.2,3.6.7c.7.4,1.4,1,1.9,1.8.5.8.8,1.9.8,3.2v7.7c0,.5,0,1.1.2,1.7s.3,1.2.4,1.6h-3.6c-.2-.6-.3-1.1-.4-1.7-.7.7-1.5,1.1-2.3,1.5s-1.6.5-2.5.5c-1.5,0-2.7-.4-3.7-1.3-1-.9-1.4-2-1.4-3.2s.2-1.7.7-2.5c.4-.8,1.1-1.4,1.9-2,.9-.6,1.9-1,3.2-1.4,1-.3,2.3-.5,3.9-.7,0-.7,0-1.2-.2-1.5-.2-.5-.5-.9-.9-1.1s-1-.4-1.7-.4c-1.6,0-2.9.7-4,2.2l-2.5-2.1ZM404,243.7v-4.1c-2.4.5-4,1.1-4.9,1.9-.7.6-1,1.3-1,2s.2,1.1.6,1.5c.4.4.9.6,1.5.6s1.1-.2,1.8-.5c.6-.3,1.4-.8,2.1-1.4Z"/>
    <path class="cls-1" d="M425,243.6c-.4,1-.8,1.8-1.2,2.3-.6.8-1.3,1.4-2.1,1.8-.8.4-1.8.6-3,.6-2.5,0-4.4-1-5.8-2.9-1.1-1.5-1.7-3.4-1.7-5.6s.7-4.6,2.2-6.2,3.3-2.4,5.4-2.4,1.9.2,2.7.6c.8.4,1.4.9,2,1.6.4.5.8,1.2,1.3,2.1l-3.5.9c-.4-.7-.8-1.1-1.2-1.4s-.9-.4-1.4-.4c-.8,0-1.5.4-2.1,1.1-.6.7-.9,1.9-.9,3.5s.2,2.4.5,3.4c.2.7.6,1.3,1,1.6.5.4,1,.6,1.6.6s1.2-.2,1.7-.7c.5-.5.9-1.2,1.2-2.2l3.3,1.6Z"/>
    <path class="cls-1" d="M428.9,226.3h4.2v5.3h2.9v3h-2.9v8.8c0,.5.2.8.5,1.1s1.1.4,2.4.4v3.4c-.9,0-1.4,0-1.5,0-1.3,0-2.3-.2-3.1-.5-.8-.3-1.4-.9-1.8-1.7-.5-.8-.7-1.7-.7-2.7v-8.8h-2.5v-3h2.5v-5.3Z"/>
    <path class="cls-1" d="M466,241.4c-.3,1.3-.7,2.3-1.2,3.1-.8,1.2-1.8,2.2-3.1,2.9-1.3.7-2.7,1.1-4.4,1.1s-3.5-.4-5.1-1.3c-1.6-.9-2.8-2.2-3.7-4-.8-1.8-1.3-3.9-1.3-6.3s.4-4.7,1.3-6.6c.8-1.9,2.1-3.4,3.7-4.3,1.6-1,3.3-1.4,5.1-1.4s2.6.3,3.9.9c1.3.6,2.3,1.4,3.1,2.5.6.7,1,1.7,1.4,3l-4.2,1.2c-.3-1.2-.8-2.2-1.6-2.8-.8-.6-1.7-1-2.8-1-1.6,0-2.9.8-3.8,2.3-.9,1.6-1.3,3.6-1.3,6.1s.2,3,.6,4.2c.4,1.2,1,2.1,1.7,2.6.7.6,1.5.9,2.3.9,1.3,0,2.4-.5,3.4-1.4.7-.6,1.3-1.5,1.7-2.7l4.2,1.2Z"/>
    <path class="cls-1" d="M482.7,244.1c-.4.7-.7,1.3-1.1,1.6-.5.6-1.1,1.1-1.7,1.5-.6.4-1.2.7-1.9.8-.7.2-1.3.3-2,.3-1.4,0-2.7-.4-4-1.1-1.3-.7-2.2-1.7-2.9-3.1-.7-1.3-1-2.9-1-4.5,0-2.5.7-4.5,2.1-6,1.4-1.5,3.3-2.3,5.5-2.3s3.9.7,5.2,2.1c1.3,1.4,2,3.3,2,5.7s0,.8,0,1.4h-10.4c0,1.5.4,2.6,1,3.3.6.7,1.5,1.1,2.4,1.1s1.4-.2,1.9-.6c.5-.4,1-1,1.4-1.7l3.4,1.4ZM479.3,238.1c0-1.3-.4-2.2-1.1-2.9-.6-.7-1.4-1-2.4-1s-1.7.3-2.3,1c-.6.7-1,1.6-1,2.9h6.7Z"/>
    <path class="cls-1" d="M490.7,233.9c.9-.8,1.8-1.5,2.7-1.9.9-.4,1.9-.6,3-.6s2.1.3,2.7.9c.7.8,1.1,1.9,1.1,3.3v12.5h-4.1v-11.4c0-.7-.1-1.2-.4-1.4-.3-.3-.6-.4-1.1-.4s-1.1.1-1.6.4c-.6.3-1.3.8-2.2,1.7v11.2h-4.2v-16.4h4.2v2.2Z"/>
    <path class="cls-1" d="M505.2,226.3h4.2v5.3h2.9v3h-2.9v8.8c0,.5.2.8.5,1.1s1.1.4,2.4.4v3.4c-.9,0-1.4,0-1.5,0-1.3,0-2.3-.2-3.1-.5-.8-.3-1.4-.9-1.8-1.7-.5-.8-.7-1.7-.7-2.7v-8.8h-2.5v-3h2.5v-5.3Z"/>
    <path class="cls-1" d="M528.9,244.1c-.4.7-.7,1.3-1.1,1.6-.5.6-1.1,1.1-1.7,1.5-.6.4-1.2.7-1.9.8-.7.2-1.3.3-2,.3-1.4,0-2.7-.4-4-1.1-1.3-.7-2.2-1.7-2.9-3.1-.7-1.3-1-2.9-1-4.5,0-2.5.7-4.5,2.1-6,1.4-1.5,3.3-2.3,5.5-2.3s3.9.7,5.2,2.1c1.3,1.4,2,3.3,2,5.7s0,.8,0,1.4h-10.4c0,1.5.4,2.6,1,3.3.6.7,1.5,1.1,2.4,1.1s1.4-.2,1.9-.6c.5-.4,1-1,1.4-1.7l3.4,1.4ZM525.5,238.1c0-1.3-.4-2.2-1.1-2.9-.6-.7-1.4-1-2.4-1s-1.6.3-2.3,1c-.6.7-1,1.6-1,2.9h6.7Z"/>
    <path class="cls-1" d="M536.9,235.6c.9-1.6,1.8-2.6,2.6-3.2.8-.6,1.7-.9,2.7-1v4.2h-.4c-1,0-2,.3-2.9.9-.9.6-1.6,1.5-2.1,2.7v8.9h-4.2v-16.4h4.2v3.9Z"/>
  </g>
</svg>