<svg xmlns="http://www.w3.org/2000/svg" xmlns:v="https://svgstorm.com"
viewBox = "0 0 417 438"
width="417"
height="438" >
    <g fill="None" fill-opacity="0.0" stroke="currentColor" stroke-opacity="0.01" stroke-width="0.3"><path d="
    M 0.00 123.00 
    C 11.41 114.00 39.04 127.91 40.00 108.00
    C 28.63 104.28 16.20 104.53 4.00 104.00
    C 2.71 94.74 14.64 98.33 21.00 98.00 C 27.36 97.67 35.22 101.07 42.00 100.00
    C 43.08 93.50 44.70 86.02 46.93 79.93 C 49.15 73.83 51.53 67.81 53.98 61.98 C 56.42 56.14 59.52 50.82 62.31 45.31 C 65.09 39.79 68.26 34.59 71.31 29.31 C 74.35 24.02 78.10 19.65 81.75 14.75 C 85.41 9.86 89.34 5.75 94.70 2.70 C 100.05 -0.36 106.66 4.23 107.31 11.69 C 107.95 19.16 113.21 22.62 111.98 32.02 C 110.75 41.43 116.40 44.74 126.00 42.00 C 135.60 39.26 139.80 44.54 149.00 44.00 C 158.21 43.46 158.26 50.76 166.25 42.25 C 174.25 33.75 183.27 23.92 194.03 20.02 C 204.78 16.13 203.06 26.66 203.00 34.00 C 202.94 41.34 201.27 49.33 200.01 56.01 C 198.75 62.69 205.37 65.10 208.30 70.70 C 211.24 76.29 216.23 81.37 217.00 88.00
    C 223.97 85.76 226.98 85.34 234.02 82.02 C 241.07 78.71 246.89 83.14 238.99 86.99 C 231.09 90.84 228.53 87.35 222.31 93.31 C 216.08 99.26 230.08 101.41 234.22 97.22 C 238.36 93.04 253.93 97.66 246.92 101.92 C 239.91 106.17 234.40 101.84 227.93 105.93 C 221.46 110.01 228.10 117.03 228.93 123.07 C 229.75 129.12 233.43 134.27 234.78 140.22 C 236.13 146.18 238.50 152.48 240.98 158.02 C 243.45 163.57 246.09 168.83 248.77 174.23 C 251.45 179.63 254.05 183.69 256.92 189.08 C 259.78 194.48 262.83 198.12 266.75 203.25 C 270.68 208.37 271.68 210.67 276.75 216.25 C 281.82 221.82 281.36 221.92 288.25 228.75 C 295.14 235.59 305.29 245.33 311.25 252.75 C 317.20 260.17 318.09 259.45 322.75 265.25 C 327.42 271.04 329.15 272.74 333.25 277.75 C 337.34 282.76 340.44 286.11 343.77 291.23 C 347.10 296.35 351.17 300.15 352.92 306.08 C 354.68 312.00 360.84 314.84 359.93 322.07 C 359.01 329.31 364.05 334.93 353.92 339.92 C 343.78 344.91 329.96 335.13 321.25 329.75 C 312.54 324.37 315.92 324.26 307.75 319.25 C 299.58 314.23 307.27 309.88 304.00 302.00 C 300.73 294.12 296.58 304.39 297.00 311.00 C 297.42 317.62 296.51 323.86 294.01 331.01 C 291.50 338.15 291.22 338.89 286.23 347.23 C 281.24 355.56 270.60 365.11 262.75 370.75 C 254.90 376.39 253.70 374.20 246.78 378.78 C 239.85 383.35 236.63 381.97 231.70 377.30 C 226.76 372.63 226.70 368.32 220.75 364.25 C 214.80 360.18 217.11 372.26 221.75 375.25 C 226.40 378.23 228.26 384.10 232.25 387.75 C 236.24 391.40 238.80 397.38 243.25 400.75 C 247.70 404.12 251.49 407.57 255.25 411.75 C 259.01 415.93 264.38 421.59 262.67 427.67 C 260.96 433.75 253.40 435.75 249.00 438.00
    L 417.00 438.00
    L 417.00 361.00
    C 414.90 370.76 410.40 379.82 404.25 388.25 C 398.10 396.67 391.23 402.15 381.92 406.92 C 372.61 411.70 357.82 413.74 347.00 413.00 C 336.18 412.26 322.84 409.11 313.78 405.22 C 304.71 401.34 295.05 394.85 288.25 389.75 C 281.46 384.64 266.37 377.20 272.75 369.75 C 279.13 362.30 287.66 352.20 294.25 361.75 C 300.83 371.30 308.66 372.73 317.69 378.31 C 326.73 383.88 339.13 386.34 350.07 386.93 C 361.02 387.52 371.82 383.86 380.25 376.25 C 388.68 368.63 393.64 361.44 394.33 349.33 C 395.02 337.22 390.50 329.47 387.23 316.77 C 383.95 304.07 403.65 304.37 406.92 316.08 C 410.20 327.78 416.84 334.91 417.00 347.00
    L 417.00 0.00
    L 0.00 0.00
    L 0.00 123.00
    M 263.00 140.00 
    C 270.23 141.17 280.61 145.48 286.25 150.75 C 291.88 156.03 294.43 171.23 285.75 175.75 C 277.07 180.28 266.76 178.51 257.78 173.22 C 248.79 167.94 250.56 161.04 245.02 150.98 C 239.49 140.91 251.65 138.16 263.00 140.00 Z"/>
    </g>
    <g fill="None" fill-opacity="0.0" stroke="currentColor" stroke-opacity="1.00" stroke-width="0.3"><path d="
    M 0.00 123.00 
    L 0.00 126.00
    C 12.28 129.40 24.39 123.66 37.00 125.00
    C 23.38 195.16 42.35 275.99 80.30 332.70 C 118.25 389.40 172.59 419.41 234.00 438.00
    L 249.00 438.00
    C 253.40 435.75 260.96 433.75 262.67 427.67 C 264.38 421.59 259.01 415.93 255.25 411.75 C 251.49 407.57 247.70 404.12 243.25 400.75 C 238.80 397.38 236.24 391.40 232.25 387.75 C 228.26 384.10 226.40 378.23 221.75 375.25 C 217.11 372.26 214.80 360.18 220.75 364.25 C 226.70 368.32 226.76 372.63 231.70 377.30 C 236.63 381.97 239.85 383.35 246.78 378.78 C 253.70 374.20 254.90 376.39 262.75 370.75 C 270.60 365.11 281.24 355.56 286.23 347.23 C 291.22 338.89 291.50 338.15 294.01 331.01 C 296.51 323.86 297.42 317.62 297.00 311.00 C 296.58 304.39 300.73 294.12 304.00 302.00 C 307.27 309.88 299.58 314.23 307.75 319.25 C 315.92 324.26 312.54 324.37 321.25 329.75 C 329.96 335.13 343.78 344.91 353.92 339.92 C 364.05 334.93 359.01 329.31 359.93 322.07 C 360.84 314.84 354.68 312.00 352.92 306.08 C 351.17 300.15 347.10 296.35 343.77 291.23 C 340.44 286.11 337.34 282.76 333.25 277.75 C 329.15 272.74 327.42 271.04 322.75 265.25 C 318.09 259.45 317.20 260.17 311.25 252.75 C 305.29 245.33 295.14 235.59 288.25 228.75 C 281.36 221.92 281.82 221.82 276.75 216.25 C 271.68 210.67 270.68 208.37 266.75 203.25 C 262.83 198.12 259.78 194.48 256.92 189.08 C 254.05 183.69 251.45 179.63 248.77 174.23 C 246.09 168.83 243.45 163.57 240.98 158.02 C 238.50 152.48 236.13 146.18 234.78 140.22 C 233.43 134.27 229.75 129.12 228.93 123.07 C 228.10 117.03 221.46 110.01 227.93 105.93 C 234.40 101.84 239.91 106.17 246.92 101.92 C 253.93 97.66 238.36 93.04 234.22 97.22 C 230.08 101.41 216.08 99.26 222.31 93.31 C 228.53 87.35 231.09 90.84 238.99 86.99 C 246.89 83.14 241.07 78.71 234.02 82.02 C 226.98 85.34 223.97 85.76 217.00 88.00
    C 216.23 81.37 211.24 76.29 208.30 70.70 C 205.37 65.10 198.75 62.69 200.01 56.01 C 201.27 49.33 202.94 41.34 203.00 34.00 C 203.06 26.66 204.78 16.13 194.03 20.02 C 183.27 23.92 174.25 33.75 166.25 42.25 C 158.26 50.76 158.21 43.46 149.00 44.00 C 139.80 44.54 135.60 39.26 126.00 42.00 C 116.40 44.74 110.75 41.43 111.98 32.02 C 113.21 22.62 107.95 19.16 107.31 11.69 C 106.66 4.23 100.05 -0.36 94.70 2.70 C 89.34 5.75 85.41 9.86 81.75 14.75 C 78.10 19.65 74.35 24.02 71.31 29.31 C 68.26 34.59 65.09 39.79 62.31 45.31 C 59.52 50.82 56.42 56.14 53.98 61.98 C 51.53 67.81 49.15 73.83 46.93 79.93 C 44.70 86.02 43.08 93.50 42.00 100.00
    C 35.22 101.07 27.36 97.67 21.00 98.00 C 14.64 98.33 2.71 94.74 4.00 104.00
    C 16.20 104.53 28.63 104.28 40.00 108.00
    C 39.04 127.91 11.41 114.00 0.00 123.00
    M 188.00 88.00 
    C 201.02 90.55 198.31 114.53 184.26 112.60 C 170.20 110.66 173.59 85.18 188.00 88.00
    M 110.00 89.00 
    C 123.06 93.13 115.23 117.96 101.93 112.07 C 88.62 106.19 96.23 84.65 110.00 89.00
    M 158.00 107.00 
    C 167.46 109.99 155.87 123.79 146.78 117.22 C 137.68 110.66 148.71 104.06 158.00 107.00
    M 158.00 149.00 
    C 164.19 149.88 171.12 153.49 176.25 157.75 C 181.37 162.02 185.08 167.29 187.77 173.23 C 190.46 179.17 188.00 189.18 183.25 193.25 C 178.49 197.32 171.43 203.98 164.00 201.00 C 156.57 198.02 148.37 197.73 150.07 209.07 C 151.77 220.42 148.54 224.07 145.00 215.00 C 141.46 205.92 151.80 198.13 146.69 192.31 C 141.58 186.48 136.91 179.71 144.75 183.25 C 152.58 186.80 154.16 192.89 162.02 193.98 C 169.89 195.06 176.68 194.16 180.92 187.92 C 185.15 181.67 183.04 173.13 178.08 167.92 C 173.13 162.71 171.34 158.35 162.92 156.08 C 154.50 153.81 150.15 152.92 138.99 155.99 C 127.84 159.06 114.63 169.97 110.08 181.08 C 105.52 192.18 104.64 190.05 104.00 202.00 C 103.36 213.95 95.79 209.30 98.78 198.78 C 101.77 188.25 99.29 188.19 104.92 177.92 C 110.56 167.66 121.73 155.65 133.08 152.08 C 144.42 148.50 146.78 147.40 158.00 149.00 Z"/>
    </g>
    <g fill="None" fill-opacity="0.0" stroke="currentColor" stroke-opacity="0.05" stroke-width="0.3"><path d="
    M 188.00 88.00 
    C 173.59 85.18 170.20 110.66 184.26 112.60 C 198.31 114.53 201.02 90.55 188.00 88.00 Z"/>
    </g>
    <g fill="None" fill-opacity="0.0" stroke="currentColor" stroke-opacity="0.07" stroke-width="0.3"><path d="
    M 110.00 89.00 
    C 96.23 84.65 88.62 106.19 101.93 112.07 C 115.23 117.96 123.06 93.13 110.00 89.00 Z"/>
    </g>
    <g fill="None" fill-opacity="0.0" stroke="currentColor" stroke-opacity="0.06" stroke-width="0.3"><path d="
    M 158.00 107.00 
    C 148.71 104.06 137.68 110.66 146.78 117.22 C 155.87 123.79 167.46 109.99 158.00 107.00 Z"/>
    </g>
    <g fill="None" fill-opacity="0.0" stroke="currentColor" stroke-opacity="0.01" stroke-width="0.3"><path d="
    M 0.00 126.00 
    L 0.00 438.00
    L 234.00 438.00
    C 172.59 419.41 118.25 389.40 80.30 332.70 C 42.35 275.99 23.38 195.16 37.00 125.00
    C 24.39 123.66 12.28 129.40 0.00 126.00 Z"/>
    </g>
    <g fill="None" fill-opacity="0.0" stroke="currentColor" stroke-opacity="1.00" stroke-width="0.3"><path d="
    M 263.00 140.00 
    C 251.65 138.16 239.49 140.91 245.02 150.98 C 250.56 161.04 248.79 167.94 257.78 173.22 C 266.76 178.51 277.07 180.28 285.75 175.75 C 294.43 171.23 291.88 156.03 286.25 150.75 C 280.61 145.48 270.23 141.17 263.00 140.00 Z"/>
    </g>
    <g fill="None" fill-opacity="0.0" stroke="currentColor" stroke-opacity="0.09" stroke-width="0.3"><path d="
    M 158.00 149.00 
    C 146.78 147.40 144.42 148.50 133.08 152.08 C 121.73 155.65 110.56 167.66 104.92 177.92 C 99.29 188.19 101.77 188.25 98.78 198.78 C 95.79 209.30 103.36 213.95 104.00 202.00 C 104.64 190.05 105.52 192.18 110.08 181.08 C 114.63 169.97 127.84 159.06 138.99 155.99 C 150.15 152.92 154.50 153.81 162.92 156.08 C 171.34 158.35 173.13 162.71 178.08 167.92 C 183.04 173.13 185.15 181.67 180.92 187.92 C 176.68 194.16 169.89 195.06 162.02 193.98 C 154.16 192.89 152.58 186.80 144.75 183.25 C 136.91 179.71 141.58 186.48 146.69 192.31 C 151.80 198.13 141.46 205.92 145.00 215.00 C 148.54 224.07 151.77 220.42 150.07 209.07 C 148.37 197.73 156.57 198.02 164.00 201.00 C 171.43 203.98 178.49 197.32 183.25 193.25 C 188.00 189.18 190.46 179.17 187.77 173.23 C 185.08 167.29 181.37 162.02 176.25 157.75 C 171.12 153.49 164.19 149.88 158.00 149.00 Z"/>
    </g>
    <g fill="None" fill-opacity="0.0" stroke="currentColor" stroke-opacity="1.00" stroke-width="0.3"><path d="
    M 417.00 361.00 
    L 417.00 347.00
    C 416.84 334.91 410.20 327.78 406.92 316.08 C 403.65 304.37 383.95 304.07 387.23 316.77 C 390.50 329.47 395.02 337.22 394.33 349.33 C 393.64 361.44 388.68 368.63 380.25 376.25 C 371.82 383.86 361.02 387.52 350.07 386.93 C 339.13 386.34 326.73 383.88 317.69 378.31 C 308.66 372.73 300.83 371.30 294.25 361.75 C 287.66 352.20 279.13 362.30 272.75 369.75 C 266.37 377.20 281.46 384.64 288.25 389.75 C 295.05 394.85 304.71 401.34 313.78 405.22 C 322.84 409.11 336.18 412.26 347.00 413.00 C 357.82 413.74 372.61 411.70 381.92 406.92 C 391.23 402.15 398.10 396.67 404.25 388.25 C 410.40 379.82 414.90 370.76 417.00 361.00 Z"/>
    </g>
    <g fill="#fff" fill-opacity="0.01" stroke="None">
    <path d="
    M 0.00 123.00 
    C 11.41 114.00 39.04 127.91 40.00 108.00
    C 28.63 104.28 16.20 104.53 4.00 104.00
    C 2.71 94.74 14.64 98.33 21.00 98.00 C 27.36 97.67 35.22 101.07 42.00 100.00
    C 43.08 93.50 44.70 86.02 46.93 79.93 C 49.15 73.83 51.53 67.81 53.98 61.98 C 56.42 56.14 59.52 50.82 62.31 45.31 C 65.09 39.79 68.26 34.59 71.31 29.31 C 74.35 24.02 78.10 19.65 81.75 14.75 C 85.41 9.86 89.34 5.75 94.70 2.70 C 100.05 -0.36 106.66 4.23 107.31 11.69 C 107.95 19.16 113.21 22.62 111.98 32.02 C 110.75 41.43 116.40 44.74 126.00 42.00 C 135.60 39.26 139.80 44.54 149.00 44.00 C 158.21 43.46 158.26 50.76 166.25 42.25 C 174.25 33.75 183.27 23.92 194.03 20.02 C 204.78 16.13 203.06 26.66 203.00 34.00 C 202.94 41.34 201.27 49.33 200.01 56.01 C 198.75 62.69 205.37 65.10 208.30 70.70 C 211.24 76.29 216.23 81.37 217.00 88.00
    C 223.97 85.76 226.98 85.34 234.02 82.02 C 241.07 78.71 246.89 83.14 238.99 86.99 C 231.09 90.84 228.53 87.35 222.31 93.31 C 216.08 99.26 230.08 101.41 234.22 97.22 C 238.36 93.04 253.93 97.66 246.92 101.92 C 239.91 106.17 234.40 101.84 227.93 105.93 C 221.46 110.01 228.10 117.03 228.93 123.07 C 229.75 129.12 233.43 134.27 234.78 140.22 C 236.13 146.18 238.50 152.48 240.98 158.02 C 243.45 163.57 246.09 168.83 248.77 174.23 C 251.45 179.63 254.05 183.69 256.92 189.08 C 259.78 194.48 262.83 198.12 266.75 203.25 C 270.68 208.37 271.68 210.67 276.75 216.25 C 281.82 221.82 281.36 221.92 288.25 228.75 C 295.14 235.59 305.29 245.33 311.25 252.75 C 317.20 260.17 318.09 259.45 322.75 265.25 C 327.42 271.04 329.15 272.74 333.25 277.75 C 337.34 282.76 340.44 286.11 343.77 291.23 C 347.10 296.35 351.17 300.15 352.92 306.08 C 354.68 312.00 360.84 314.84 359.93 322.07 C 359.01 329.31 364.05 334.93 353.92 339.92 C 343.78 344.91 329.96 335.13 321.25 329.75 C 312.54 324.37 315.92 324.26 307.75 319.25 C 299.58 314.23 307.27 309.88 304.00 302.00 C 300.73 294.12 296.58 304.39 297.00 311.00 C 297.42 317.62 296.51 323.86 294.01 331.01 C 291.50 338.15 291.22 338.89 286.23 347.23 C 281.24 355.56 270.60 365.11 262.75 370.75 C 254.90 376.39 253.70 374.20 246.78 378.78 C 239.85 383.35 236.63 381.97 231.70 377.30 C 226.76 372.63 226.70 368.32 220.75 364.25 C 214.80 360.18 217.11 372.26 221.75 375.25 C 226.40 378.23 228.26 384.10 232.25 387.75 C 236.24 391.40 238.80 397.38 243.25 400.75 C 247.70 404.12 251.49 407.57 255.25 411.75 C 259.01 415.93 264.38 421.59 262.67 427.67 C 260.96 433.75 253.40 435.75 249.00 438.00
    L 417.00 438.00
    L 417.00 361.00
    C 414.90 370.76 410.40 379.82 404.25 388.25 C 398.10 396.67 391.23 402.15 381.92 406.92 C 372.61 411.70 357.82 413.74 347.00 413.00 C 336.18 412.26 322.84 409.11 313.78 405.22 C 304.71 401.34 295.05 394.85 288.25 389.75 C 281.46 384.64 266.37 377.20 272.75 369.75 C 279.13 362.30 287.66 352.20 294.25 361.75 C 300.83 371.30 308.66 372.73 317.69 378.31 C 326.73 383.88 339.13 386.34 350.07 386.93 C 361.02 387.52 371.82 383.86 380.25 376.25 C 388.68 368.63 393.64 361.44 394.33 349.33 C 395.02 337.22 390.50 329.47 387.23 316.77 C 383.95 304.07 403.65 304.37 406.92 316.08 C 410.20 327.78 416.84 334.91 417.00 347.00
    L 417.00 0.00
    L 0.00 0.00
    L 0.00 123.00
    M 263.00 140.00 
    C 270.23 141.17 280.61 145.48 286.25 150.75 C 291.88 156.03 294.43 171.23 285.75 175.75 C 277.07 180.28 266.76 178.51 257.78 173.22 C 248.79 167.94 250.56 161.04 245.02 150.98 C 239.49 140.91 251.65 138.16 263.00 140.00 Z"/>
    </g>
    <g fill="#fff" fill-opacity="1.00" stroke="None">
    <path d="
    M 0.00 123.00 
    L 0.00 126.00
    C 12.28 129.40 24.39 123.66 37.00 125.00
    C 23.38 195.16 42.35 275.99 80.30 332.70 C 118.25 389.40 172.59 419.41 234.00 438.00
    L 249.00 438.00
    C 253.40 435.75 260.96 433.75 262.67 427.67 C 264.38 421.59 259.01 415.93 255.25 411.75 C 251.49 407.57 247.70 404.12 243.25 400.75 C 238.80 397.38 236.24 391.40 232.25 387.75 C 228.26 384.10 226.40 378.23 221.75 375.25 C 217.11 372.26 214.80 360.18 220.75 364.25 C 226.70 368.32 226.76 372.63 231.70 377.30 C 236.63 381.97 239.85 383.35 246.78 378.78 C 253.70 374.20 254.90 376.39 262.75 370.75 C 270.60 365.11 281.24 355.56 286.23 347.23 C 291.22 338.89 291.50 338.15 294.01 331.01 C 296.51 323.86 297.42 317.62 297.00 311.00 C 296.58 304.39 300.73 294.12 304.00 302.00 C 307.27 309.88 299.58 314.23 307.75 319.25 C 315.92 324.26 312.54 324.37 321.25 329.75 C 329.96 335.13 343.78 344.91 353.92 339.92 C 364.05 334.93 359.01 329.31 359.93 322.07 C 360.84 314.84 354.68 312.00 352.92 306.08 C 351.17 300.15 347.10 296.35 343.77 291.23 C 340.44 286.11 337.34 282.76 333.25 277.75 C 329.15 272.74 327.42 271.04 322.75 265.25 C 318.09 259.45 317.20 260.17 311.25 252.75 C 305.29 245.33 295.14 235.59 288.25 228.75 C 281.36 221.92 281.82 221.82 276.75 216.25 C 271.68 210.67 270.68 208.37 266.75 203.25 C 262.83 198.12 259.78 194.48 256.92 189.08 C 254.05 183.69 251.45 179.63 248.77 174.23 C 246.09 168.83 243.45 163.57 240.98 158.02 C 238.50 152.48 236.13 146.18 234.78 140.22 C 233.43 134.27 229.75 129.12 228.93 123.07 C 228.10 117.03 221.46 110.01 227.93 105.93 C 234.40 101.84 239.91 106.17 246.92 101.92 C 253.93 97.66 238.36 93.04 234.22 97.22 C 230.08 101.41 216.08 99.26 222.31 93.31 C 228.53 87.35 231.09 90.84 238.99 86.99 C 246.89 83.14 241.07 78.71 234.02 82.02 C 226.98 85.34 223.97 85.76 217.00 88.00
    C 216.23 81.37 211.24 76.29 208.30 70.70 C 205.37 65.10 198.75 62.69 200.01 56.01 C 201.27 49.33 202.94 41.34 203.00 34.00 C 203.06 26.66 204.78 16.13 194.03 20.02 C 183.27 23.92 174.25 33.75 166.25 42.25 C 158.26 50.76 158.21 43.46 149.00 44.00 C 139.80 44.54 135.60 39.26 126.00 42.00 C 116.40 44.74 110.75 41.43 111.98 32.02 C 113.21 22.62 107.95 19.16 107.31 11.69 C 106.66 4.23 100.05 -0.36 94.70 2.70 C 89.34 5.75 85.41 9.86 81.75 14.75 C 78.10 19.65 74.35 24.02 71.31 29.31 C 68.26 34.59 65.09 39.79 62.31 45.31 C 59.52 50.82 56.42 56.14 53.98 61.98 C 51.53 67.81 49.15 73.83 46.93 79.93 C 44.70 86.02 43.08 93.50 42.00 100.00
    C 35.22 101.07 27.36 97.67 21.00 98.00 C 14.64 98.33 2.71 94.74 4.00 104.00
    C 16.20 104.53 28.63 104.28 40.00 108.00
    C 39.04 127.91 11.41 114.00 0.00 123.00
    M 188.00 88.00 
    C 201.02 90.55 198.31 114.53 184.26 112.60 C 170.20 110.66 173.59 85.18 188.00 88.00
    M 110.00 89.00 
    C 123.06 93.13 115.23 117.96 101.93 112.07 C 88.62 106.19 96.23 84.65 110.00 89.00
    M 158.00 107.00 
    C 167.46 109.99 155.87 123.79 146.78 117.22 C 137.68 110.66 148.71 104.06 158.00 107.00
    M 158.00 149.00 
    C 164.19 149.88 171.12 153.49 176.25 157.75 C 181.37 162.02 185.08 167.29 187.77 173.23 C 190.46 179.17 188.00 189.18 183.25 193.25 C 178.49 197.32 171.43 203.98 164.00 201.00 C 156.57 198.02 148.37 197.73 150.07 209.07 C 151.77 220.42 148.54 224.07 145.00 215.00 C 141.46 205.92 151.80 198.13 146.69 192.31 C 141.58 186.48 136.91 179.71 144.75 183.25 C 152.58 186.80 154.16 192.89 162.02 193.98 C 169.89 195.06 176.68 194.16 180.92 187.92 C 185.15 181.67 183.04 173.13 178.08 167.92 C 173.13 162.71 171.34 158.35 162.92 156.08 C 154.50 153.81 150.15 152.92 138.99 155.99 C 127.84 159.06 114.63 169.97 110.08 181.08 C 105.52 192.18 104.64 190.05 104.00 202.00 C 103.36 213.95 95.79 209.30 98.78 198.78 C 101.77 188.25 99.29 188.19 104.92 177.92 C 110.56 167.66 121.73 155.65 133.08 152.08 C 144.42 148.50 146.78 147.40 158.00 149.00 Z"/>
    </g>
    <g fill="#fff" fill-opacity="0.05" stroke="None">
    <path d="
    M 188.00 88.00 
    C 173.59 85.18 170.20 110.66 184.26 112.60 C 198.31 114.53 201.02 90.55 188.00 88.00 Z"/>
    </g>
    <g fill="#fff" fill-opacity="0.07" stroke="None">
    <path d="
    M 110.00 89.00 
    C 96.23 84.65 88.62 106.19 101.93 112.07 C 115.23 117.96 123.06 93.13 110.00 89.00 Z"/>
    </g>
    <g fill="#fff" fill-opacity="0.06" stroke="None">
    <path d="
    M 158.00 107.00 
    C 148.71 104.06 137.68 110.66 146.78 117.22 C 155.87 123.79 167.46 109.99 158.00 107.00 Z"/>
    </g>
    <g fill="#fff" fill-opacity="0.01" stroke="None">
    <path d="
    M 0.00 126.00 
    L 0.00 438.00
    L 234.00 438.00
    C 172.59 419.41 118.25 389.40 80.30 332.70 C 42.35 275.99 23.38 195.16 37.00 125.00
    C 24.39 123.66 12.28 129.40 0.00 126.00 Z"/>
    </g>
    <g fill="#fff" fill-opacity="1.00" stroke="None">
    <path d="
    M 263.00 140.00 
    C 251.65 138.16 239.49 140.91 245.02 150.98 C 250.56 161.04 248.79 167.94 257.78 173.22 C 266.76 178.51 277.07 180.28 285.75 175.75 C 294.43 171.23 291.88 156.03 286.25 150.75 C 280.61 145.48 270.23 141.17 263.00 140.00 Z"/>
    </g>
    <g fill="#fff" fill-opacity="0.09" stroke="None">
    <path d="
    M 158.00 149.00 
    C 146.78 147.40 144.42 148.50 133.08 152.08 C 121.73 155.65 110.56 167.66 104.92 177.92 C 99.29 188.19 101.77 188.25 98.78 198.78 C 95.79 209.30 103.36 213.95 104.00 202.00 C 104.64 190.05 105.52 192.18 110.08 181.08 C 114.63 169.97 127.84 159.06 138.99 155.99 C 150.15 152.92 154.50 153.81 162.92 156.08 C 171.34 158.35 173.13 162.71 178.08 167.92 C 183.04 173.13 185.15 181.67 180.92 187.92 C 176.68 194.16 169.89 195.06 162.02 193.98 C 154.16 192.89 152.58 186.80 144.75 183.25 C 136.91 179.71 141.58 186.48 146.69 192.31 C 151.80 198.13 141.46 205.92 145.00 215.00 C 148.54 224.07 151.77 220.42 150.07 209.07 C 148.37 197.73 156.57 198.02 164.00 201.00 C 171.43 203.98 178.49 197.32 183.25 193.25 C 188.00 189.18 190.46 179.17 187.77 173.23 C 185.08 167.29 181.37 162.02 176.25 157.75 C 171.12 153.49 164.19 149.88 158.00 149.00 Z"/>
    </g>
    <g fill="#fff" fill-opacity="1.00" stroke="None">
    <path d="
    M 417.00 361.00 
    L 417.00 347.00
    C 416.84 334.91 410.20 327.78 406.92 316.08 C 403.65 304.37 383.95 304.07 387.23 316.77 C 390.50 329.47 395.02 337.22 394.33 349.33 C 393.64 361.44 388.68 368.63 380.25 376.25 C 371.82 383.86 361.02 387.52 350.07 386.93 C 339.13 386.34 326.73 383.88 317.69 378.31 C 308.66 372.73 300.83 371.30 294.25 361.75 C 287.66 352.20 279.13 362.30 272.75 369.75 C 266.37 377.20 281.46 384.64 288.25 389.75 C 295.05 394.85 304.71 401.34 313.78 405.22 C 322.84 409.11 336.18 412.26 347.00 413.00 C 357.82 413.74 372.61 411.70 381.92 406.92 C 391.23 402.15 398.10 396.67 404.25 388.25 C 410.40 379.82 414.90 370.76 417.00 361.00 Z"/>
    </g>
</svg>